<?xml version="1.0" standalone="no"?>
<!DOCTYPE svg PUBLIC "-//W3C//DTD SVG 20010904//EN"
 "http://www.w3.org/TR/2001/REC-SVG-20010904/DTD/svg10.dtd">
<svg version="1.0" xmlns="http://www.w3.org/2000/svg"
 width="512.000000pt" height="512.000000pt" viewBox="0 0 512.000000 512.000000"
 preserveAspectRatio="xMidYMid meet">
<metadata>
Created by potrace 1.14, written by Peter Selinger 2001-2017
</metadata>
<g transform="translate(0.000000,512.000000) scale(0.100000,-0.100000)"
fill="#000000" stroke="none">
<path d="M1470 3132 c0 -983 1 -971 -50 -1042 -41 -57 -89 -74 -232 -78 l-128
-4 0 -60 0 -60 148 4 c136 3 151 5 197 30 64 33 116 88 152 158 l28 55 3 958
2 957 -60 0 -60 0 0 -918z"/>
<path d="M1710 3124 c0 -1028 1 -1008 -66 -1121 -73 -120 -181 -200 -303 -223
-29 -5 -105 -10 -167 -10 l-114 0 0 -61 0 -61 163 4 c135 4 172 8 222 26 133
49 262 167 325 298 61 127 60 99 60 1132 l0 942 -60 0 -60 0 0 -926z"/>
<path d="M1950 3118 c-1 -737 -4 -949 -14 -1008 -45 -250 -234 -470 -470 -546
-69 -23 -104 -27 -243 -32 l-163 -5 0 -59 0 -60 178 4 c148 4 188 9 247 28
271 87 471 293 557 572 l23 73 3 983 3 982 -61 0 -60 0 0 -932z"/>
<path d="M2187 3073 c-3 -966 -3 -979 -25 -1055 -84 -302 -272 -529 -538 -649
-113 -51 -212 -70 -396 -76 l-168 -6 0 -59 0 -60 188 5 c148 4 203 9 267 26
98 26 268 107 350 165 219 157 382 421 430 695 13 70 15 244 15 1037 l0 954
-60 0 -59 0 -4 -977z"/>
<path d="M2620 2670 l0 -1380 60 0 60 0 0 1380 0 1380 -60 0 -60 0 0 -1380z"/>
<path d="M2860 2670 l0 -1380 60 0 60 0 0 1380 0 1380 -60 0 -60 0 0 -1380z"/>
<path d="M3100 2670 l0 -1380 60 0 60 0 0 1380 0 1380 -60 0 -60 0 0 -1380z"/>
<path d="M3340 2670 l0 -1380 540 0 540 0 0 60 0 60 -480 0 -480 0 0 60 0 60
480 0 480 0 0 60 0 60 -480 0 -480 0 0 60 0 60 480 0 480 0 0 60 0 60 -480 0
-480 0 0 1080 0 1080 -60 0 -60 0 0 -1380z"/>
</g>
</svg>
